<svg xmlns="http://www.w3.org/2000/svg" viewBox="0 0 410 404" fill="none">
  <path d="M399.641 59.525L215.643 388.545c-3.1 5.541-11.086 5.527-14.168-.024L10.561 59.558c-3.424-5.897 1.606-13.15 8.325-12.024l184.06 30.855a8 8 0 0 0 2.657 0l188.681-30.91c6.73-1.102 11.748 6.18 8.357 12.046Z" fill="#FF6B3D"/>
  <path d="M292.965.208 156.764 26.894a4 4 0 0 0-3.238 3.366l-8.37 56.188a4 4 0 0 0 4.812 4.536l37.906-8.245a4 4 0 0 1 4.769 4.767l-11.255 55.113a4 4 0 0 0 4.89 4.701l23.417-5.41a4 4 0 0 1 4.908 4.804l-17.885 87.021a4 4 0 0 0 7.37 3.091l4.92-8.7 111.01-221.61a4 4 0 0 0-4.473-5.733Z" fill="#111111"/>
</svg>
